# 3ds Max Wavefront OBJ Exporter v0.97b - (c)2007 guruware
# File Created: 08.06.2017 12:17:54

#
# object Layer_A_Plumbings
#

v  161.6849 -5.0000 77.6678
v  132.2704 -5.0000 103.0909
v  132.2704 0.0000 103.0909
v  161.6849 0.0000 77.6678
v  109.2199 -5.0000 168.3856
v  109.2199 0.0000 168.3856
v  110.1211 -5.0000 291.8516
v  110.1211 0.0000 291.8516
v  37.2766 -5.0000 302.5373
v  37.2766 0.0000 302.5373
v  37.0807 -5.0000 314.3715
v  37.0807 0.0000 314.3715
v  110.2816 -5.0000 313.8372
v  110.2816 0.0000 313.8372
v  110.3731 -5.0000 326.3758
v  110.3731 0.0000 326.3758
v  25.3792 -5.0000 330.8316
v  25.3792 0.0000 330.8316
v  25.7007 -5.0000 339.6425
v  25.7007 0.0000 339.6425
v  110.5609 -5.0000 352.0981
v  110.5609 0.0000 352.0981
v  110.8353 -5.0000 389.6938
v  110.8353 0.0000 389.6938
v  27.8255 -5.0000 397.8714
v  27.8255 0.0000 397.8714
v  32.1139 -5.0000 733.5421
v  32.1139 0.0000 733.5421
v  46.3145 -5.0000 733.3607
v  46.3145 0.0000 733.3607
v  32.7967 -5.0000 786.9893
v  32.7967 0.0000 786.9893
v  46.5599 -5.0000 833.2231
v  46.5599 0.0000 833.2231
v  75.0571 -5.0000 847.2390
v  75.0571 0.0000 847.2390
v  145.4766 -5.0000 927.9418
v  145.4766 0.0000 927.9418
v  185.2173 -5.0000 939.4855
v  185.2173 0.0000 939.4855
v  242.3975 -5.0000 919.7426
v  242.3975 0.0000 919.7426
v  245.9310 -5.0000 901.3752
v  245.9310 0.0000 901.3752
v  294.8992 -5.0000 874.9774
v  294.8992 0.0000 874.9774
v  422.1449 -5.0000 738.5034
v  422.1449 0.0000 738.5034
v  451.9606 -5.0000 753.8997
v  451.9606 0.0000 753.8997
v  471.5081 -5.0000 735.0182
v  471.5081 0.0000 735.0182
v  444.5046 -5.0000 714.5220
v  444.5046 0.0000 714.5220
v  520.9495 -5.0000 632.5331
v  520.9495 0.0000 632.5331
v  536.4163 -5.0000 638.3992
v  536.4163 0.0000 638.3992
v  570.5022 -5.0000 548.5281
v  570.5022 0.0000 548.5281
v  555.0354 -5.0000 542.6620
v  555.0354 0.0000 542.6620
v  573.6896 -5.0000 441.3713
v  573.6896 0.0000 441.3713
v  576.5191 -5.0000 330.3980
v  576.5191 0.0000 330.3980
v  579.5839 -5.0000 210.1970
v  579.5839 0.0000 210.1970
v  577.5062 -5.0000 137.3036
v  577.5062 0.0000 137.3036
v  566.3516 -5.0000 103.1511
v  566.3516 0.0000 103.1511
v  424.9180 -5.0000 56.8156
v  424.9180 0.0000 56.8156
# 74 vertices

vn -0.6539 0.0000 -0.7566
vn -0.9430 0.0000 -0.3329
vn -1.0000 0.0000 0.0073
vn -0.1451 0.0000 -0.9894
vn -0.9999 0.0000 -0.0166
vn 0.0073 0.0000 1.0000
vn -0.0524 0.0000 -0.9986
vn -0.9993 0.0000 0.0365
vn -0.1452 0.0000 0.9894
vn -0.0980 0.0000 -0.9952
vn -0.9999 0.0000 0.0128
vn 0.0128 0.0000 0.9999
vn -0.9697 0.0000 -0.2444
vn -0.9584 0.0000 0.2853
vn -0.4413 0.0000 0.8973
vn -0.7535 0.0000 0.6575
vn -0.2789 0.0000 0.9603
vn 0.3264 0.0000 0.9452
vn 0.9820 0.0000 0.1889
vn 0.4745 0.0000 0.8802
vn 0.7314 0.0000 0.6819
vn -0.4588 0.0000 0.8885
vn 0.6947 0.0000 0.7193
vn 0.6046 0.0000 -0.7965
vn -0.3546 0.0000 0.9350
vn 0.9350 0.0000 0.3546
vn 0.3546 0.0000 -0.9350
vn 0.9835 0.0000 0.1811
vn 0.9997 0.0000 0.0255
vn 0.9996 0.0000 -0.0285
vn 0.9506 0.0000 -0.3105
vn 0.3113 0.0000 -0.9503
vn -0.0790 0.0000 -0.9969
vn 0.0000 -1.0000 -0.0000
vn 0.0000 1.0000 -0.0000
# 35 vertex normals

g Layer_A_Plumbings
s 1
f 1//1 2//1 3//1 4//1 
s 4
f 2//2 5//2 6//2 3//2 
s 2
f 5//3 7//3 8//3 6//3 
s 4
f 7//4 9//4 10//4 8//4 
s 2
f 9//5 11//5 12//5 10//5 
s 4
f 11//6 13//6 14//6 12//6 
s 2
f 13//3 15//3 16//3 14//3 
s 4
f 15//7 17//7 18//7 16//7 
s 2
f 17//8 19//8 20//8 18//8 
s 4
f 19//9 21//9 22//9 20//9 
s 2
f 21//3 23//3 24//3 22//3 
s 4
f 23//10 25//10 26//10 24//10 
s 2
f 25//11 27//11 28//11 26//11 
s 4
f 27//12 29//12 30//12 28//12 
s 2
f 29//13 31//13 32//13 30//13 
s 4
f 31//14 33//14 34//14 32//14 
s 2
f 33//15 35//15 36//15 34//15 
s 4
f 35//16 37//16 38//16 36//16 
s 2
f 37//17 39//17 40//17 38//17 
s 4
f 39//18 41//18 42//18 40//18 
s 2
f 41//19 43//19 44//19 42//19 
s 4
f 43//20 45//20 46//20 44//20 
s 2
f 45//21 47//21 48//21 46//21 
s 4
f 47//22 49//22 50//22 48//22 
s 2
f 49//23 51//23 52//23 50//23 
s 4
f 51//24 53//24 54//24 52//24 
s 2
f 53//21 55//21 56//21 54//21 
s 4
f 55//25 57//25 58//25 56//25 
s 2
f 57//26 59//26 60//26 58//26 
s 4
f 59//27 61//27 62//27 60//27 
s 2
f 61//28 63//28 64//28 62//28 
s 4
f 63//29 65//29 66//29 64//29 
s 2
f 65//29 67//29 68//29 66//29 
s 4
f 67//30 69//30 70//30 68//30 
s 2
f 69//31 71//31 72//31 70//31 
s 4
f 71//32 73//32 74//32 72//32 
s 2
f 73//33 1//33 4//33 74//33 
s 16
f 49//34 47//34 53//34 51//34 
f 9//34 7//34 13//34 11//34 
f 57//34 55//34 61//34 59//34 
f 25//34 23//34 29//34 27//34 
f 15//34 21//34 19//34 17//34 
f 39//34 37//34 43//34 41//34 
f 69//34 67//34 73//34 71//34 
f 67//34 65//34 1//34 73//34 
f 65//34 5//34 2//34 1//34 
f 65//34 13//34 7//34 5//34 
f 65//34 63//34 15//34 13//34 
f 63//34 23//34 21//34 15//34 
f 61//34 29//34 23//34 63//34 
f 55//34 53//34 29//34 61//34 
f 47//34 45//34 29//34 53//34 
f 43//34 31//34 29//34 45//34 
f 43//34 35//34 33//34 31//34 
f 43//34 37//34 35//34 
f 50//35 52//35 54//35 48//35 
f 10//35 12//35 14//35 8//35 
f 58//35 60//35 62//35 56//35 
f 26//35 28//35 30//35 24//35 
f 16//35 18//35 20//35 22//35 
f 40//35 42//35 44//35 38//35 
f 70//35 72//35 74//35 68//35 
f 68//35 74//35 4//35 66//35 
f 66//35 4//35 3//35 6//35 
f 66//35 6//35 8//35 14//35 
f 66//35 14//35 16//35 64//35 
f 64//35 16//35 22//35 24//35 
f 62//35 64//35 24//35 30//35 
f 56//35 62//35 30//35 54//35 
f 48//35 54//35 30//35 46//35 
f 44//35 46//35 30//35 32//35 
f 44//35 32//35 34//35 36//35 
f 44//35 36//35 38//35 
# 71 polygons - 2 triangles

